<svg width="257" height="240" viewBox="0 0 257 240" fill="none" xmlns="http://www.w3.org/2000/svg">
<path d="M243.149 220.368H255.547" stroke="#263238" stroke-width="0.953494" stroke-linecap="round" stroke-linejoin="round"/>
<path d="M145.359 220.368H159.118" stroke="#263238" stroke-width="0.953494" stroke-linecap="round" stroke-linejoin="round"/>
<path d="M37.2903 220.368H83.4827" stroke="#263238" stroke-width="0.953494" stroke-linecap="round" stroke-linejoin="round"/>
<path d="M19.3574 220.368H29.8131" stroke="#263238" stroke-width="0.953494" stroke-linecap="round" stroke-linejoin="round"/>
<path d="M66.6961 79.0874C66.6961 79.0874 67.4622 84.0762 63.2334 86.1906C63.2334 86.1906 68.3386 87.2816 68.8106 92.2152C68.8106 92.2152 68.9086 85.4736 71.8382 84.6585C71.8382 84.6585 67.8729 84.5972 66.6961 79.0874Z" fill="white"/>
<path d="M127.438 79.7124C127.438 79.7124 127.199 82.7768 124.374 83.4326C124.374 83.4326 127.242 84.7931 126.826 87.7779C126.826 87.7779 127.825 83.8003 129.675 83.7267C129.706 83.7267 127.365 83.1322 127.438 79.7124Z" fill="white"/>
<path d="M130.828 69.2939C130.828 69.2939 130.582 72.3583 127.763 73.0141C127.763 73.0141 130.625 74.3747 130.215 77.3594C130.215 77.3594 131.214 73.3818 133.065 73.3083C133.071 73.3083 130.73 72.7138 130.828 69.2939Z" fill="white"/>
<path d="M59.2314 69.5146C59.2314 69.5146 59.0169 74.0744 56.21 75.4779C57.4244 75.8439 58.5049 76.5581 59.3175 77.532C60.1302 78.5058 60.6394 79.6967 60.782 80.957C60.782 80.957 60.1691 75.8518 63.3316 74.7731C62.3168 74.2342 61.4271 73.4873 60.7206 72.5812C60.0141 71.6751 59.5067 70.6302 59.2314 69.5146Z" fill="white"/>
<path d="M200.009 234.096C222.271 234.096 240.318 230.055 240.318 225.069C240.318 220.083 222.271 216.041 200.009 216.041C177.747 216.041 159.7 220.083 159.7 225.069C159.7 230.055 177.747 234.096 200.009 234.096Z" fill="white" stroke="#263238" stroke-width="0.953494" stroke-linecap="round" stroke-linejoin="round"/>
<path d="M200.235 230.646C219.745 230.646 235.562 227.402 235.562 223.401C235.562 219.401 219.745 216.157 200.235 216.157C180.725 216.157 164.909 219.401 164.909 223.401C164.909 227.402 180.725 230.646 200.235 230.646Z" stroke="#263238" stroke-width="0.953494" stroke-linecap="round" stroke-linejoin="round"/>
<path d="M176.26 213.761C174.668 212.994 172.853 212.828 171.148 213.295C170.307 213.542 169.547 214.009 168.947 214.65C168.348 215.29 167.931 216.079 167.741 216.935C167.638 217.758 167.727 218.594 168.002 219.377C168.276 220.159 168.728 220.868 169.322 221.446C170.522 222.593 171.945 223.482 173.502 224.057C177.727 225.831 182.268 226.734 186.85 226.711C190.693 226.711 194.536 226.024 198.36 226.404C202.037 226.76 205.518 228.071 209.147 228.66C212.853 229.26 216.642 229.108 220.289 228.212C224.052 227.287 228.06 225.007 228.716 221.189C228.887 219.869 228.681 218.528 228.12 217.322C227.559 216.115 226.667 215.093 225.547 214.374C224.414 213.68 223.143 213.241 221.823 213.089C220.503 212.936 219.166 213.074 217.905 213.491C218.573 213.283 217.592 207.362 217.421 206.566C216.195 201.05 209.68 197.146 204.262 197.44C200.622 197.636 196.987 200.106 196.221 203.667C194.995 202.974 193.236 203.238 191.992 203.924C191.374 204.278 190.853 204.781 190.478 205.386C190.102 205.992 189.883 206.682 189.841 207.393C187.445 205.211 183.712 204.702 180.648 205.695C179.335 206.058 178.188 206.866 177.406 207.981C176.933 208.817 176.605 209.727 176.438 210.672C176.211 211.677 176.493 212.768 176.26 213.761Z" fill="#8D99C1"/>
<path d="M176.009 213.871C174.417 213.102 172.6 212.939 170.897 213.411C170.056 213.658 169.296 214.126 168.696 214.766C168.097 215.406 167.68 216.196 167.49 217.052C167.388 217.874 167.479 218.709 167.754 219.491C168.03 220.272 168.483 220.979 169.077 221.556C170.274 222.707 171.694 223.597 173.251 224.173C177.477 225.944 182.017 226.846 186.599 226.827C190.442 226.827 194.291 226.135 198.115 226.515C201.792 226.876 205.267 228.182 208.896 228.776C212.604 229.376 216.395 229.224 220.044 228.329C223.807 227.397 227.815 225.123 228.465 221.299C228.637 219.981 228.432 218.641 227.872 217.436C227.312 216.23 226.421 215.208 225.302 214.49C224.168 213.798 222.896 213.36 221.576 213.206C220.255 213.053 218.917 213.188 217.654 213.601C218.322 213.393 217.347 207.473 217.17 206.676C215.944 201.16 209.429 197.262 204.011 197.55C200.371 197.746 196.736 200.216 195.97 203.777C194.744 203.091 192.985 203.348 191.747 204.041C191.128 204.394 190.606 204.896 190.229 205.502C189.853 206.107 189.633 206.797 189.59 207.509C187.194 205.321 183.492 204.819 180.397 205.806C179.086 206.173 177.941 206.98 177.155 208.092C176.685 208.93 176.357 209.842 176.187 210.788C175.96 211.787 176.242 212.872 176.009 213.871Z" stroke="#263238" stroke-width="0.953494" stroke-linecap="round" stroke-linejoin="round"/>
<path opacity="0.19" d="M176.272 213.908C174.683 213.139 172.868 212.976 171.167 213.448C170.326 213.695 169.566 214.161 168.967 214.801C168.368 215.44 167.951 216.228 167.759 217.083C167.656 217.906 167.746 218.741 168.02 219.524C168.294 220.307 168.746 221.015 169.34 221.594C170.54 222.741 171.963 223.629 173.52 224.204C177.746 225.977 182.286 226.882 186.869 226.864C190.711 226.864 194.554 226.172 198.378 226.552C202.056 226.913 205.537 228.219 209.165 228.813C212.872 229.414 216.662 229.26 220.307 228.36C224.07 227.434 228.078 225.154 228.734 221.336C228.906 220.018 228.699 218.677 228.138 217.472C227.577 216.266 226.685 215.245 225.566 214.527C224.433 213.832 223.162 213.393 221.842 213.239C220.522 213.086 219.185 213.222 217.923 213.638C218.591 213.43 217.61 207.51 217.433 206.713C216.207 201.197 209.698 197.299 204.274 197.587C200.64 197.783 197.006 200.253 196.239 203.814C195.014 203.128 193.255 203.385 192.011 204.078C191.393 204.431 190.873 204.933 190.497 205.537C190.122 206.142 189.903 206.83 189.859 207.54C187.463 205.359 183.761 204.856 180.666 205.843C179.358 206.212 178.215 207.019 177.43 208.129C176.956 208.966 176.629 209.878 176.462 210.825C176.229 211.824 176.511 212.909 176.272 213.908Z" fill="white"/>
<path opacity="0.2" d="M215.325 202.827C212.462 200.234 207.725 200.621 204.63 202.925C201.535 205.229 199.856 209.023 199.145 212.817C198.514 212.419 197.784 212.205 197.039 212.198C196.293 212.192 195.56 212.393 194.922 212.78C193.655 213.578 192.673 214.755 192.115 216.145C191.017 215.357 189.702 214.93 188.351 214.921C186.999 214.912 185.679 215.323 184.57 216.096C183.81 216.72 183.082 217.383 182.389 218.081C180.327 219.907 177.638 220.863 174.886 220.748C172.135 220.634 169.534 219.459 167.631 217.469C167.631 217.469 165.443 220.576 173.845 224.1C182.248 227.624 187.708 227.164 192.231 226.6C196.754 226.037 202.454 227.054 206.432 228.439C210.409 229.824 221.999 229.916 226.087 225.485C230.175 221.054 229.721 212.418 217.905 213.227C217.929 213.191 218.064 205.303 215.325 202.827Z" fill="black"/>
<path d="M191.772 195.54C190.111 194.78 189.32 192.727 189.578 190.913C189.835 189.099 190.803 187.493 191.906 186.01C193.01 184.527 194.192 183.117 194.891 181.426C197.606 174.807 191.759 166.98 194.364 160.318" stroke="#263238" stroke-width="0.953494" stroke-linecap="round" stroke-linejoin="round"/>
<path d="M215.551 195.031C213.989 194.553 213.1 192.898 212.787 191.293C211.862 186.255 215.331 181.487 216.079 176.443C216.691 172.245 215.423 168.016 214.16 163.958" stroke="#263238" stroke-width="0.953494" stroke-linecap="round" stroke-linejoin="round"/>
<path d="M204.011 193.536C202.35 191.973 202.534 189.246 203.398 187.15C204.262 185.054 205.757 183.203 206.37 181.021C206.721 179.721 206.762 178.357 206.488 177.039C206.214 175.721 205.635 174.486 204.795 173.434" stroke="#263238" stroke-width="0.953494" stroke-linecap="round" stroke-linejoin="round"/>
<path d="M189.345 165.246C189.199 167.553 189.343 169.869 189.774 172.14" stroke="#263238" stroke-width="0.953494" stroke-linecap="round" stroke-linejoin="round"/>
<path d="M189.467 179.335C189.682 181.621 188.168 183.656 186.961 185.611C185.546 187.815 184.59 190.281 184.147 192.862C183.703 195.457 184.121 198.126 185.336 200.461" stroke="#263238" stroke-width="0.953494" stroke-linecap="round" stroke-linejoin="round"/>
<path d="M107.134 86.9815L107.746 94.4769V94.6547C107.232 94.5936 106.714 94.5629 106.196 94.5627C102.126 94.5627 95.777 95.8988 91.2723 97.0142C88.1099 97.7987 85.83 98.4729 85.83 98.4729L85.1497 95.7701L82.5695 85.6699C80.4796 83.8742 77.2926 76.82 77.2926 76.82C74.7002 76.4216 71.4765 74.0682 70.7778 70.777C70.0791 67.4859 74.1302 67.8107 74.1302 67.8107L76.7533 66.1988L80.0383 57.2325C80.0383 57.2325 77.1517 50.5582 82.833 47.8739C88.5144 45.1895 107.832 54.5419 107.832 54.5419L109.922 63.3122C112.607 64.4031 109.769 70.9731 109.769 70.9731C109.769 70.9731 110.026 71.0773 110.321 74.9568C110.615 78.8363 107.134 86.9815 107.134 86.9815Z" fill="white"/>
<path d="M100.68 66.1499C101.538 69.4104 104.56 71.7332 104.449 72.5728C104.308 73.6515 102.978 75.1102 101.771 75.1285" stroke="#263238" stroke-width="0.953494" stroke-linecap="round" stroke-linejoin="round"/>
<path d="M106.631 60.9043C106.631 60.9043 103.977 58.7409 101.924 61.5172" stroke="#263238" stroke-width="1.90699" stroke-linecap="round" stroke-linejoin="round"/>
<path d="M91.4133 77.3779C91.4133 77.3779 92.7617 80.8958 98.155 80.7794" stroke="#263238" stroke-width="0.953494" stroke-linecap="round" stroke-linejoin="round"/>
<path d="M94.8638 63.668C92.9271 62.4729 90.2427 62.5771 88.8208 65.2186" stroke="#263238" stroke-width="1.90699" stroke-linecap="round" stroke-linejoin="round"/>
<path d="M94.5757 68.8037C94.7535 69.7598 94.4899 70.6423 93.9629 70.7097C93.4358 70.7771 92.8842 70.0968 92.7003 69.1591C92.5165 68.2214 92.7922 67.3512 93.3132 67.2592C93.8341 67.1673 94.3919 67.8537 94.5757 68.8037Z" fill="#263238"/>
<path d="M105.626 66.6713C105.803 67.6274 105.54 68.5099 105.013 68.5773C104.486 68.6448 103.934 67.9645 103.75 67.0268C103.567 66.0891 103.842 65.2188 104.363 65.1207C104.884 65.0227 105.442 65.703 105.626 66.6713Z" fill="#263238"/>
<path d="M77.0416 70.1648C77.0416 70.1648 72.5553 66.2669 71.1334 68.939C69.7116 71.6112 74.3265 77.8135 78.6596 75.9197" stroke="#263238" stroke-width="0.953494" stroke-linecap="round" stroke-linejoin="round"/>
<path d="M107.213 55.5781C107.213 55.5781 107.557 66.8121 108.801 69.3127C110.045 71.8132 111.111 73.0573 109.8 79.5783C108.488 86.0993 103.487 93.7174 98.1551 94.2261C92.8231 94.7348 80.5717 86.608 77.1028 76.4772" stroke="#263238" stroke-width="0.953494" stroke-linecap="round" stroke-linejoin="round"/>
<path d="M77.1641 70.6244C77.1641 70.6244 80.4185 68.939 79.8301 66.0217C79.2418 63.1044 79.6524 62.7428 81.9874 61.2413C84.3225 59.7397 82.8761 56.6386 80.6391 53.5864C78.4021 50.5343 82.6555 46.8816 86.1182 48.4138C89.581 49.946 109.316 57.7111 114.617 55.4067C119.918 53.1023 118.398 45.7355 111.258 41.617C111.258 41.617 107.403 37.0143 108.439 32.7793C109.475 28.5443 84.7515 15.7536 73.162 41.8008C73.162 41.8008 67.6462 43.952 66.5123 51.3556C65.3846 58.6427 73.3582 68.0687 73.3582 68.0687C73.3582 68.0687 76.1774 69.5212 77.1641 70.6244Z" fill="#263238"/>
<path d="M80.498 47.0899C82.3367 44.6384 85.683 43.762 88.6922 44.191C91.7014 44.62 94.4348 46.1583 97.0028 47.7825C99.5707 49.4066 102.096 51.1839 104.97 52.189C106.585 52.8387 108.359 52.9819 110.057 52.5997C110.72 52.4238 111.338 52.1109 111.872 51.6813C112.406 51.2516 112.844 50.7147 113.158 50.1053" stroke="white" stroke-width="0.953494" stroke-linecap="round" stroke-linejoin="round"/>
<path d="M75.356 45.1099C73.1496 45.257 71.2252 46.9117 70.3672 48.9526C69.5845 51.0388 69.5305 53.3283 70.2139 55.4491C70.6657 56.9429 71.2823 58.3819 72.0526 59.7392" stroke="white" stroke-width="0.953494" stroke-linecap="round" stroke-linejoin="round"/>
<path d="M107.569 85.9771C107.246 87.2349 107.143 88.539 107.262 89.832C107.331 91.3514 107.5 92.8645 107.771 94.3612" stroke="#263238" stroke-width="0.953494" stroke-linecap="round" stroke-linejoin="round"/>
<path d="M82.5452 85.229C83.6054 88.9798 84.7822 93.4967 85.867 98.5223" stroke="#263238" stroke-width="0.953494" stroke-linecap="round" stroke-linejoin="round"/>
<path d="M107.9 65.2978C107.9 65.2978 108.905 62.5644 110.805 63.7779C112.705 64.9914 109.677 71.1324 109.677 71.1324" stroke="#263238" stroke-width="0.953494" stroke-linecap="round" stroke-linejoin="round"/>
<path d="M110.676 53.6904C110.676 53.6904 111.626 61.4188 109.321 63.858L107.556 64.4035L106.625 54.1378L110.676 53.6904Z" fill="#263238"/>
<path d="M65.3601 43.9947C65.3601 43.9947 59.1456 43.5596 53.1394 36.4135C47.1332 29.2673 51.9872 24.2479 54.978 21.5635C57.9688 18.8791 65.3479 11.5184 68.4306 8.08021C71.5134 4.64197 77.6912 0.290553 84.6718 1.4305C91.6525 2.57045 98.4493 6.79929 105.087 8.74824C111.724 10.6972 118.337 17.9414 119.312 22.6667C120.286 27.3919 118.19 34.8016 115.757 36.5851L111.571 36.4564L113.41 42.7996C113.41 42.7996 88.5391 32.963 66.3223 51.4289L68.2039 44.8221L65.3601 43.9947Z" fill="white"/>
<path d="M76.7902 35.5552C76.7902 38.3805 76.8331 41.2059 77.0108 44.019L66.6838 51.6922L69.2089 39.2508L76.7902 35.5552Z" fill="#8D99C1"/>
<path opacity="0.6" d="M76.79 35.5552C76.79 38.3805 76.9187 41.5185 77.0903 44.3316L66.6714 51.6861L69.1964 39.2447L76.79 35.5552Z" fill="white"/>
<path d="M78.0159 1.62652C78.515 1.47219 79.0489 1.47149 79.5484 1.6245C80.0479 1.77751 80.4898 2.07716 80.8168 2.48455C81.4547 3.31263 81.7802 4.3391 81.7361 5.38345C81.7055 8.78491 79.1743 11.6654 76.398 13.6389C73.6216 15.6123 70.4469 17.0465 68.0077 19.4244C66.617 20.78 65.5118 22.4002 64.7572 24.1896C64.0026 25.979 63.6138 27.9013 63.6138 29.8433C63.6138 31.7853 64.0026 33.7077 64.7572 35.4971C65.5118 37.2865 66.617 38.9067 68.0077 40.2622C68.2835 40.5258 68.5654 40.777 68.8351 41.0528L67.9832 44.534C67.9832 44.534 56.9514 43.0937 53.1638 36.4134C49.3763 29.733 50.5714 26.6073 53.8748 22.6849C57.1782 18.7625 61.4683 16.6297 65.6726 10.6419C69.877 4.65413 78.0159 1.62652 78.0159 1.62652Z" fill="#8D99C1"/>
<path opacity="0.6" d="M78.0159 1.62652C78.515 1.47219 79.0489 1.47149 79.5484 1.6245C80.0479 1.77751 80.4898 2.07716 80.8168 2.48455C81.4547 3.31263 81.7802 4.3391 81.7361 5.38345C81.7055 8.78491 79.1743 11.6654 76.398 13.6389C73.6216 15.6123 70.4469 17.0465 68.0077 19.4244C66.617 20.78 65.5118 22.4002 64.7572 24.1896C64.0026 25.979 63.6138 27.9013 63.6138 29.8433C63.6138 31.7853 64.0026 33.7077 64.7572 35.4971C65.5118 37.2865 66.617 38.9067 68.0077 40.2622C68.2835 40.5258 68.5654 40.777 68.8351 41.0528L67.9832 44.534C67.9832 44.534 56.9514 43.0937 53.1638 36.4134C49.3763 29.733 50.5714 26.6073 53.8748 22.6849C57.1782 18.7625 61.4683 16.6297 65.6726 10.6419C69.877 4.65413 78.0159 1.62652 78.0159 1.62652Z" fill="white"/>
<path d="M66.6838 51.6924C66.6838 51.6924 83.7831 33.968 113.385 43.1121L109.744 33.0671C109.744 33.0671 89.1519 27.447 69.2089 39.251L66.6838 51.6924Z" stroke="#263238" stroke-width="0.953494" stroke-linecap="round" stroke-linejoin="round"/>
<path d="M111.712 38.4787C113.814 38.1416 117.914 35.8066 118.846 33.8883C119.698 31.9218 120.078 29.7829 119.955 27.6431C119.974 24.5951 119.266 21.5865 117.89 18.8667C114.721 13.0015 108.035 10.1271 101.838 7.66945L90.2429 3.06676C87.8955 2.13519 85.4992 1.19136 82.9803 1.02588C77.9853 0.701055 73.2662 3.47738 69.6135 6.91562C65.9607 10.3539 63.0251 14.4846 59.3172 17.8554C57.5092 19.498 55.5234 20.9198 53.8503 22.7585C52.1771 24.5971 50.7859 26.7176 50.5469 29.1508C50.1914 32.6503 52.2507 35.9782 54.7819 38.4236C57.313 40.8689 59.7829 43.6943 67.9097 44.6565" stroke="#263238" stroke-width="0.953494" stroke-linecap="round" stroke-linejoin="round"/>
<path d="M99.5095 31.7376C101.197 30.7399 102.674 29.4245 103.861 27.8643" stroke="#263238" stroke-width="0.953494" stroke-linecap="round" stroke-linejoin="round"/>
<path d="M74.8962 36.2115C73.4268 35.7018 72.0847 34.8812 70.9614 33.8055C69.8381 32.7298 68.9602 31.4245 68.3875 29.9785" stroke="#263238" stroke-width="0.953494" stroke-linecap="round" stroke-linejoin="round"/>
<path d="M77.0476 6.44379C74.302 6.24767 71.8995 8.28241 70.1405 10.3784C68.3816 12.4745 66.8126 14.9382 64.355 16.1824" stroke="#263238" stroke-width="0.953494" stroke-linecap="round" stroke-linejoin="round"/>
<path d="M176.082 127.101L150.783 146.848C150.783 146.848 141.069 115.199 140.499 111.258C138.942 107.464 133.298 102.163 133.298 102.163C133.298 102.163 112.552 101.14 111.056 100.282C109.561 99.4235 109.395 94.4653 109.395 94.4653C108.856 94.4653 108.292 94.4653 107.722 94.4653C107.152 94.4653 106.705 94.5144 106.184 94.5511C101.212 95.0215 96.291 95.9217 91.4749 97.2417C87.5341 98.2713 84.7761 99.1906 84.7761 99.1906L86.3083 105.846L85.199 107.513C81.5647 110.228 61.6523 116.829 56.498 119.158C54.2414 120.943 52.0772 122.841 50.0138 124.846C50.0138 124.846 32.1546 159.89 29.3844 164.168C27.6988 166.849 26.7848 169.943 26.7429 173.11C28.7961 177.492 31.8114 177.78 34.9187 178.852C35.4406 179.027 35.9521 179.232 36.4509 179.465C40.0852 181.169 72.1325 178.632 72.1325 178.632C72.1325 178.632 69.8281 190.043 80.3328 185.704C97.144 178.754 137.33 183.565 137.33 183.565L136.368 157.824L145.475 168.243C145.475 168.243 149.735 170.75 154.858 167.551C162.648 162.519 185.233 134.725 185.233 134.725C183.051 129.571 176.082 127.101 176.082 127.101ZM74.5901 167.232L72.7515 165.393C69.5768 163.469 57.7361 161.238 57.7361 161.238L66.0712 149.195C66.0712 149.195 74.8659 162.801 75.2643 163.953C75.6627 165.105 74.5901 167.232 74.5901 167.232Z" fill="white"/>
<path d="M92.1242 194.695L94.0119 235.371C94.0119 235.371 87.8341 233.827 86.1181 231.253C84.402 228.679 80.5715 190.123 80.5715 190.123C80.5715 190.123 84.2488 193.493 92.1242 194.695Z" fill="#8D99C1"/>
<path opacity="0.56" d="M92.1242 194.695L94.0119 235.371C94.0119 235.371 87.8341 233.827 86.1181 231.253C84.402 228.679 80.5715 190.123 80.5715 190.123C80.5715 190.123 84.2488 193.493 92.1242 194.695Z" fill="white"/>
<path d="M75.5215 164.627L65.8625 149.587L73.9464 138.893C73.9464 138.893 74.5593 144.942 78.1446 147.749C83.8872 152.229 82.6247 166 82.6247 166L75.5215 164.627Z" fill="#8D99C1"/>
<path opacity="0.6" d="M75.5215 164.627L65.8625 149.587L73.9464 138.893C73.9464 138.893 74.5593 144.942 78.1446 147.749C83.8872 152.229 82.6247 166 82.6247 166L75.5215 164.627Z" fill="white"/>
<path d="M134.26 125.446C134.26 125.446 141.271 156.635 145.334 161.605C149.398 166.576 149.483 147.197 150.917 146.927C152.352 146.657 154.748 158.284 153.823 161.795C153.823 161.795 154.374 163.634 156.409 161.795C158.444 159.957 183.725 136.539 183.725 136.539C183.725 136.539 157.745 169.407 150.317 169.205C144.035 170.075 137.25 158.848 137.25 158.848L134.26 125.446Z" fill="#8D99C1"/>
<path opacity="0.6" d="M134.26 125.446C134.26 125.446 141.271 156.635 145.334 161.605C149.398 166.576 149.483 147.197 150.917 146.927C152.352 146.657 154.748 158.284 153.823 161.795C153.823 161.795 154.374 163.634 156.409 161.795C158.444 159.957 183.725 136.539 183.725 136.539C183.725 136.539 157.745 169.407 150.317 169.205C144.035 170.075 137.25 158.848 137.25 158.848L134.26 125.446Z" fill="white"/>
<path d="M58.9924 159.307L57.4357 161.391C57.4357 161.391 44.976 159.828 34.9187 178.827C31.8114 177.755 28.7899 177.466 26.7429 173.084C26.7848 169.918 27.6988 166.824 29.3844 164.143C32.1546 159.852 50.2222 124.422 50.2222 124.422C52.0741 122.394 54.1841 120.618 56.498 119.139C69.3684 112.336 81.5647 110.216 85.199 107.494L86.3083 105.827L84.7761 99.1716C84.7761 99.1716 87.5341 98.2523 91.4749 97.2227L93.5096 105.907C93.8447 107.344 93.6504 108.853 92.9626 110.157C92.2747 111.462 91.1394 112.475 89.7649 113.01L60.3469 124.355C58.4482 125.083 56.8943 126.502 55.9955 128.326L39.8891 160.858C40.2139 160.57 46.6185 154.055 58.9924 159.307Z" fill="#8D99C1"/>
<path opacity="0.6" d="M58.9924 159.307L57.4357 161.391C57.4357 161.391 44.976 159.828 34.9187 178.827C31.8114 177.755 28.7899 177.466 26.7429 173.084C26.7848 169.918 27.6988 166.824 29.3844 164.143C32.1546 159.852 50.2222 124.422 50.2222 124.422C50.2222 124.422 54.0833 120.923 56.498 119.139C68.7004 112.851 81.5647 110.216 85.199 107.494L86.3083 105.827L84.7761 99.1716C84.7761 99.1716 87.5341 98.2523 91.4749 97.2227L93.5096 105.907C93.8447 107.344 93.6504 108.853 92.9626 110.157C92.2747 111.462 91.1394 112.475 89.7649 113.01L60.3469 124.355C58.4482 125.083 56.8943 126.502 55.9955 128.326L39.8891 160.858C40.2139 160.57 46.6185 154.055 58.9924 159.307Z" fill="white"/>
<path d="M178.632 125.537L186.391 114.573C186.391 114.573 191.87 110.896 193.856 109.94C195.841 108.984 196.129 107.102 197.073 107.764C198.017 108.426 197.165 112.305 195.179 113.531C193.194 114.757 190.926 115.983 191.208 116.841C191.49 117.699 203.03 116.651 203.03 116.651C203.03 116.651 217.739 116.455 217.954 117.595C218.168 118.735 208.797 120.432 208.797 120.432C208.797 120.432 218.867 120.322 218.891 120.898C218.916 121.474 213.149 123.46 213.149 123.46C213.149 123.46 217.224 123.674 217.028 124.557C216.832 125.439 212.677 126.579 212.677 126.579C212.677 126.579 204.164 131.783 202.258 132.635C200.352 133.486 187.414 131.875 187.414 131.875L185.202 134.737C185.202 134.737 181.457 129.417 177.486 127.149L178.632 125.537Z" fill="white"/>
<path d="M150.072 159.264C150.612 155.212 150.874 151.126 150.856 147.038" stroke="#263238" stroke-width="0.953494" stroke-linecap="round" stroke-linejoin="round"/>
<path d="M107.759 94.5263C108.371 94.5263 109.027 94.4895 109.677 94.4834L110.29 98.4364C110.387 99.071 110.708 99.6499 111.195 100.069C111.681 100.488 112.301 100.72 112.943 100.722L132.893 102.077C134.357 102.077 139.916 109.683 140.86 112.551L150.917 146.958L176.088 126.972C176.088 126.972 180.991 127.64 185.238 134.755C185.238 134.755 169.034 156.323 154.325 167.851C152.174 169.53 147.356 169.904 145.438 167.967C142.202 164.707 139.273 161.789 137.011 158.774" stroke="#263238" stroke-width="0.953494" stroke-linecap="round" stroke-linejoin="round"/>
<path d="M70.0544 148.76L75.0984 145.505" stroke="#263238" stroke-width="0.953494" stroke-linecap="round" stroke-linejoin="round"/>
<path d="M71.9238 149.857C73.2585 149.426 74.6598 149.239 76.0607 149.305" stroke="#263238" stroke-width="0.953494" stroke-linecap="round" stroke-linejoin="round"/>
<path d="M66.0833 149.495C69.148 153.769 71.9875 158.2 74.59 162.77C75.1651 163.794 75.3398 164.995 75.0803 166.141L62.8228 220.307" stroke="#263238" stroke-width="0.953494" stroke-linecap="round" stroke-linejoin="round"/>
<path d="M132.905 116.982L137.128 157.775C137.41 166.931 138.09 172.729 138.495 184.202" stroke="#263238" stroke-width="0.953494" stroke-linecap="round" stroke-linejoin="round"/>
<path d="M85.7995 107.201L91.4747 143.569L99.0744 141.031C104.306 139.285 109.811 138.506 115.322 138.733L123.081 139.058L113.728 100.379H117.277L137.25 158.848L138.476 184.779C138.476 184.779 101.305 176.621 80.4797 187.622L82.11 203.557C82.11 203.557 83.1028 207.921 84.1508 220.626L67.6032 220.325H62.8228L74.8964 167.33C74.8964 167.33 85.3153 168.096 85.015 159.712C84.7147 151.328 81.8342 109.199 81.8342 109.199L85.7995 107.201Z" fill="#263238"/>
<path d="M100.925 106.857C100.925 107.199 100.824 107.533 100.634 107.817C100.444 108.102 100.174 108.323 99.8582 108.454C99.5424 108.585 99.1949 108.619 98.8596 108.552C98.5244 108.486 98.2164 108.321 97.9747 108.079C97.733 107.838 97.5684 107.53 97.5017 107.194C97.435 106.859 97.4692 106.512 97.6001 106.196C97.7309 105.88 97.9524 105.61 98.2366 105.42C98.5208 105.23 98.855 105.129 99.1968 105.129C99.6552 105.129 100.095 105.311 100.419 105.635C100.743 105.959 100.925 106.399 100.925 106.857Z" fill="#263238"/>
<path d="M101.17 116.982C102.125 116.982 102.899 116.208 102.899 115.254C102.899 114.299 102.125 113.525 101.17 113.525C100.216 113.525 99.4419 114.299 99.4419 115.254C99.4419 116.208 100.216 116.982 101.17 116.982Z" fill="#263238"/>
<path d="M111.975 161.428C118.223 160.361 124.507 159.532 130.827 158.939" stroke="white" stroke-width="0.953494" stroke-linecap="round" stroke-linejoin="round"/>
<path d="M101.177 163.505C103.742 162.962 106.319 162.457 108.905 161.991" stroke="white" stroke-width="0.953494" stroke-linecap="round" stroke-linejoin="round"/>
<path d="M130.827 161.183C125.745 163.226 120.623 165.165 115.463 166.999" stroke="white" stroke-width="0.953494" stroke-linecap="round" stroke-linejoin="round"/>
<path d="M129.638 117.791C130.167 121.11 130.931 124.387 131.924 127.597" stroke="#263238" stroke-width="0.953494" stroke-linecap="round" stroke-linejoin="round"/>
<path d="M203.147 121.34C203.147 121.34 217.856 118.888 217.96 117.595C218.064 116.302 207.37 116.982 204.851 116.761C202.332 116.541 191.778 117.895 191.429 117.233C191.079 116.571 191.937 116.418 194.26 114.482C196.583 112.545 198.293 109.125 197.668 108.04C197.043 106.955 194.971 109.364 193.378 110.247C192.097 110.964 187.249 113.709 186.372 114.911C185.496 116.112 179.668 124.153 177.461 127.217" stroke="#263238" stroke-width="0.953494" stroke-linecap="round" stroke-linejoin="round"/>
<path d="M203.484 121.217C203.484 121.217 218.977 119.795 218.916 120.923C218.818 122.804 208.43 124.287 204.176 124.6" stroke="#263238" stroke-width="0.953494" stroke-linecap="round" stroke-linejoin="round"/>
<path d="M204.078 124.656C204.078 124.656 217.249 122.817 217.053 124.558C216.857 126.298 201.884 129.136 201.884 129.136" stroke="#263238" stroke-width="0.953494" stroke-linecap="round" stroke-linejoin="round"/>
<path d="M184.693 135.436C186.17 133.315 187.145 131.857 187.145 131.857C187.145 131.857 199.831 133.248 201.651 132.899C203.472 132.549 212.033 127.064 212.033 127.064" stroke="#263238" stroke-width="0.953494" stroke-linecap="round" stroke-linejoin="round"/>
<path d="M190.276 121.266C191.683 121.437 193.019 121.976 194.151 122.828C195.283 123.68 196.17 124.816 196.724 126.12" stroke="#263238" stroke-width="0.953494" stroke-linecap="round" stroke-linejoin="round"/>
<path d="M152.891 148.275C154.319 150.463 154.478 153.215 154.595 155.826" stroke="#263238" stroke-width="0.953494" stroke-linecap="round" stroke-linejoin="round"/>
<path d="M80.5715 188.345L85.1129 227.11C85.1129 227.11 84.8984 231.192 88.3244 233.239C91.7504 235.286 106.766 238.62 115.15 238.099C123.534 237.578 134.149 237.051 138.023 234.078C141.896 231.106 140.989 223.077 140.989 223.077L143.784 198.807C143.784 198.807 146.327 189.54 143.263 186.758C137.661 181.708 90.4511 177.871 80.5715 188.345Z" fill="white"/>
<path d="M80.5714 190.123C82.3957 191.704 84.5256 192.893 86.8289 193.616C90.5061 194.719 135.761 193.42 141.375 192.323C146.989 191.226 144.954 186.629 141.828 185.342C138.703 184.055 109.671 179.826 96.8494 182.744C85.4744 185.33 78.365 185.526 80.5714 190.123Z" fill="#8D99C1"/>
<path opacity="0.6" d="M80.5716 190.123C82.3959 191.704 84.5259 192.893 86.8291 193.616C90.5064 194.72 135.761 193.42 141.375 192.323C146.989 191.226 144.954 186.63 141.829 185.343C138.703 184.056 113.097 180.335 97.6525 182.45C86.2407 185.024 78.3653 185.527 80.5716 190.123Z" fill="white"/>
<path d="M144.985 189.007C144.985 190.233 143.679 191.336 141.369 192.323C135.969 194.652 125.091 196.233 112.564 196.233C100.6 196.233 90.1447 194.793 84.5308 192.642C81.7422 191.575 80.1426 190.337 80.1426 189.007C80.1426 185.011 94.6616 181.775 112.564 181.775C130.466 181.775 144.985 185.011 144.985 189.007Z" stroke="#263238" stroke-width="0.953494" stroke-linecap="round" stroke-linejoin="round"/>
<path d="M141.369 192.311C135.969 194.64 125.091 196.221 112.564 196.221C100.6 196.221 90.1447 194.781 84.5308 192.629C88.729 190.006 99.9875 188.119 113.219 188.119C125.924 188.131 136.803 189.859 141.369 192.311Z" fill="#263238"/>
<path d="M80.1301 189.007L85.1986 229.01C85.3111 229.924 85.6565 230.794 86.2017 231.537C86.7468 232.279 87.4734 232.87 88.312 233.251C94.6921 236.131 111.828 241.911 136.282 235.139C137.31 234.847 138.228 234.256 138.919 233.44C139.61 232.625 140.042 231.622 140.161 230.56L141.712 217.23L141.865 215.87L143.122 205.108L143.397 202.73L144.985 189.007" stroke="#263238" stroke-width="0.953494" stroke-linecap="round" stroke-linejoin="round"/>
<path d="M106.968 238.197C106.141 237.141 105.575 235.904 105.316 234.588C105.057 233.271 105.113 231.912 105.479 230.622C105.479 230.622 101.746 232.491 101.636 235.782C101.636 235.782 96.1202 234.25 96.8005 226.233C96.8005 226.233 93.7361 231.173 96.4756 236.554C99.2152 241.935 106.968 238.197 106.968 238.197Z" fill="#263238"/>
<path d="M121.267 238.221C123.96 235.471 125.722 231.945 126.304 228.14C127.073 230.849 127.029 233.724 126.176 236.407C127.359 235.88 128.399 235.076 129.208 234.064C130.018 233.053 130.573 231.862 130.827 230.591C130.827 230.591 131.606 235.494 129.277 238.221C126.948 240.949 121.267 238.221 121.267 238.221Z" fill="#263238"/>
<path d="M154.344 206.406C152.885 211.506 147.663 217.058 141.712 217.218L141.865 215.857C146.971 215.593 151.733 210.629 153.038 206.051C153.357 204.936 153.89 202.202 151.966 200.964C151.496 200.637 150.963 200.413 150.401 200.307C149.839 200.202 149.261 200.217 148.705 200.351C145.8 201.062 143.637 204.746 143.618 204.782C143.568 204.873 143.496 204.95 143.41 205.007C143.324 205.065 143.225 205.101 143.122 205.113L143.398 202.735C144.403 201.424 146.168 199.579 148.38 199.058C149.116 198.882 149.88 198.862 150.624 198.998C151.368 199.134 152.075 199.424 152.701 199.849C154.595 201.038 155.189 203.446 154.344 206.406Z" fill="#263238"/>
<path d="M107.673 191.189C110.995 193.071 115.089 193.175 118.803 192.299C120.112 192.044 121.36 191.541 122.48 190.815" stroke="white" stroke-width="0.953494" stroke-linecap="round" stroke-linejoin="round"/>
<path d="M127.328 191.435C126.299 192.476 125.039 193.261 123.651 193.727" stroke="white" stroke-width="0.953494" stroke-linecap="round" stroke-linejoin="round"/>
<path d="M84.5492 218.383C72.4081 219.823 71.2007 205.794 74.4428 203.582C77.685 201.369 84.1324 208.957 84.1324 208.957" stroke="white" stroke-width="1.90699" stroke-linecap="round" stroke-linejoin="round"/>
<path d="M116.627 190.809L92.5227 147.001C92.5227 147.001 89.8873 145.413 90.0712 148.582C90.2551 151.75 112.441 191.085 112.441 191.085L116.627 190.809Z" fill="white" stroke="#263238" stroke-width="0.953494" stroke-linecap="round" stroke-linejoin="round"/>
<path d="M107.471 200.278C114.764 200.725 124.018 200.547 131.937 198.102" stroke="#263238" stroke-width="0.953494" stroke-linecap="round" stroke-linejoin="round"/>
<path d="M94.6309 198.739C94.6309 198.739 97.0824 199.236 100.95 199.701" stroke="#263238" stroke-width="0.953494" stroke-linecap="round" stroke-linejoin="round"/>
<path d="M71.7337 142.527C66.79 148.102 62.3036 154.066 58.3179 160.362" stroke="#263238" stroke-width="0.953494" stroke-linecap="round" stroke-linejoin="round"/>
<path d="M55.5354 160.123C52.5467 159.43 49.4248 159.577 46.5139 160.545" stroke="#263238" stroke-width="0.953494" stroke-linecap="round" stroke-linejoin="round"/>
<path d="M54.5549 123.473C54.5549 123.473 65.5867 129.791 69.6746 139.499" stroke="#263238" stroke-width="0.953494" stroke-linecap="round" stroke-linejoin="round"/>
<path d="M63.687 162.947C63.8954 170.866 68.829 178.962 68.829 178.962L86.964 176.192L85.7383 172.68C86.3512 172.98 87.6137 172.876 88.4656 173.078C93.8037 174.304 102.562 174.077 102.562 174.077C103.869 172.984 104.96 171.655 105.779 170.161C107.256 167.55 105.865 166.839 105.865 166.839C108.004 163.842 106.362 161.679 106.362 161.679C109.524 159.871 108.2 158.884 108.2 158.884C106.165 155.703 94.1592 157.076 94.1592 157.076L83.6361 165.956L76.49 164.731L63.687 162.947Z" fill="white"/>
<path d="M82.6616 166.074L84.249 165.553L94.1776 157.077C94.1776 157.077 107.146 156.39 108.071 158.719C108.997 161.048 106.3 162.127 103.971 163.058" stroke="#263238" stroke-width="0.953494" stroke-linecap="round" stroke-linejoin="round"/>
<path d="M105.981 162.23C105.981 162.23 109.187 163.628 104.756 167.532" stroke="#263238" stroke-width="0.953494" stroke-linecap="round" stroke-linejoin="round"/>
<path d="M105.559 166.938C106.968 166.141 107.894 169.733 102.954 171.461" stroke="#263238" stroke-width="0.953494" stroke-linecap="round" stroke-linejoin="round"/>
<path d="M105.92 170.394L102.298 174.292C102.298 174.292 94.1346 175.003 86.7985 172.637L85.9956 172.87" stroke="#263238" stroke-width="0.953494" stroke-linecap="round" stroke-linejoin="round"/>
<path d="M44.0074 167.275C45.7366 165.437 47.8201 163.969 50.1322 162.959C52.4443 161.949 54.937 161.418 57.46 161.397C58.5013 161.412 59.5344 161.583 60.5244 161.906C64.073 163.015 78.6533 164.67 83.1028 166.233L86.97 175.984C71.7033 179.845 51.3497 180.157 39.1167 179.587C36.0503 179.35 33.0642 178.49 30.3403 177.062C29.5464 176.655 28.8414 176.094 28.266 175.412C27.6906 174.73 27.2563 173.94 26.9884 173.089C26.7204 172.238 26.6241 171.342 26.705 170.453C26.786 169.565 27.0425 168.701 27.4598 167.912L49.4191 125.624C50.032 124.478 54.3221 120.433 55.505 119.954L66.6961 114.555C67.894 113.98 69.1214 113.468 70.3733 113.023L82.7473 108.874C83.685 108.494 86.4246 106.324 86.1549 105.337L84.6411 99.1535C92.0429 96.3635 99.8528 94.8085 107.759 94.5508" stroke="#263238" stroke-width="0.953494" stroke-linecap="round" stroke-linejoin="round"/>
<path d="M23.7455 90.4937H10.5012V98.4856H23.7455V90.4937Z" stroke="#263238" stroke-width="0.953494" stroke-linecap="round" stroke-linejoin="round"/>
<path d="M29.6354 100.796H16.3911V108.788H29.6354V100.796Z" stroke="#263238" stroke-width="0.953494" stroke-linecap="round" stroke-linejoin="round"/>
<path d="M239.962 87.9014H226.718V95.8933H239.962V87.9014Z" stroke="#263238" stroke-width="0.953494" stroke-linecap="round" stroke-linejoin="round"/>
<path d="M231.707 98.2036H218.462V106.196H231.707V98.2036Z" stroke="#263238" stroke-width="0.953494" stroke-linecap="round" stroke-linejoin="round"/>
<path d="M45.1899 199.432H34.1213V202.411H45.1899V199.432Z" stroke="#263238" stroke-width="0.953494" stroke-linecap="round" stroke-linejoin="round"/>
<path d="M51.4659 189.792H39.0552V197.784H51.4659V189.792Z" stroke="#263238" stroke-width="0.953494" stroke-linecap="round" stroke-linejoin="round"/>
<path d="M148.754 40.2443V6.65869H232.987V66.0525H220.436" stroke="#263238" stroke-width="0.953494" stroke-linecap="round" stroke-linejoin="round"/>
<path d="M148.754 52.4951V47.4512" stroke="#263238" stroke-width="0.953494" stroke-linecap="round" stroke-linejoin="round"/>
<path d="M160.049 66.0525H148.754V55.8052" stroke="#263238" stroke-width="0.953494" stroke-linecap="round" stroke-linejoin="round"/>
<path d="M171.522 12.6644C171.527 12.8981 171.462 13.128 171.336 13.3247C171.21 13.5214 171.028 13.6761 170.813 13.7689C170.598 13.8617 170.361 13.8885 170.131 13.8459C169.901 13.8034 169.689 13.6933 169.522 13.5297C169.355 13.3662 169.241 13.1566 169.193 12.9277C169.146 12.6988 169.168 12.4609 169.256 12.2445C169.344 12.028 169.495 11.8428 169.689 11.7124C169.883 11.5819 170.112 11.5123 170.345 11.5122C170.653 11.5121 170.949 11.6327 171.169 11.8481C171.389 12.0636 171.516 12.3566 171.522 12.6644Z" stroke="#263238" stroke-width="0.953494" stroke-linecap="round" stroke-linejoin="round"/>
<path d="M190.889 13.9335C191.539 13.9335 192.066 13.4067 192.066 12.7568C192.066 12.1069 191.539 11.5801 190.889 11.5801C190.239 11.5801 189.712 12.1069 189.712 12.7568C189.712 13.4067 190.239 13.9335 190.889 13.9335Z" stroke="#263238" stroke-width="0.953494" stroke-linecap="round" stroke-linejoin="round"/>
<path d="M212.818 12.6644C212.823 12.8981 212.758 13.128 212.632 13.3247C212.505 13.5214 212.323 13.6761 212.109 13.7689C211.894 13.8617 211.657 13.8885 211.427 13.8459C211.197 13.8034 210.985 13.6933 210.818 13.5297C210.651 13.3662 210.536 13.1566 210.489 12.9277C210.442 12.6988 210.463 12.4609 210.552 12.2445C210.64 12.028 210.791 11.8428 210.985 11.7124C211.179 11.5819 211.407 11.5123 211.641 11.5122C211.949 11.5121 212.245 11.6327 212.465 11.8481C212.685 12.0636 212.811 12.3566 212.818 12.6644Z" stroke="#263238" stroke-width="0.953494" stroke-linecap="round" stroke-linejoin="round"/>
<path d="M173.765 57.7475C173.522 57.7543 173.28 57.7113 173.054 57.6213C172.827 57.5313 172.622 57.3961 172.45 57.224C172.278 57.0519 172.143 56.8466 172.053 56.6204C171.963 56.3943 171.92 56.1522 171.927 55.9089L172.503 20.7911C172.564 19.5163 172.129 18.4009 170.854 18.4009H169.984C168.727 18.4009 167.71 18.977 167.741 20.2395L168.55 55.9579C168.556 56.197 168.515 56.435 168.428 56.6578C168.341 56.8806 168.21 57.0838 168.043 57.2552C167.876 57.4266 167.677 57.5628 167.456 57.6558C167.236 57.7488 166.999 57.7966 166.76 57.7965H166.637C166.167 57.7981 165.717 57.9838 165.382 58.3138C165.048 58.6438 164.856 59.0918 164.848 59.5616L164.621 75.8335C164.616 76.2512 164.695 76.6658 164.852 77.0528C165.01 77.4397 165.243 77.7914 165.538 78.0871C165.833 78.3828 166.184 78.6166 166.571 78.7748C166.957 78.9329 167.372 79.0123 167.79 79.0082L173.575 78.9346C173.991 78.9299 174.401 78.8426 174.782 78.6777C175.164 78.5128 175.509 78.2736 175.797 77.9741C176.085 77.6747 176.31 77.3209 176.46 76.9334C176.61 76.5459 176.682 76.1324 176.67 75.717L176.18 59.4697C176.165 58.9961 175.964 58.5475 175.619 58.2224C175.274 57.8972 174.815 57.7221 174.341 57.7353L173.765 57.7475Z" stroke="#263238" stroke-width="0.953494" stroke-linecap="round" stroke-linejoin="round"/>
<path d="M169.212 20.9633C169.212 20.7572 169.273 20.5558 169.387 20.3844C169.502 20.2131 169.664 20.0796 169.855 20.0007C170.045 19.9218 170.255 19.9012 170.457 19.9414C170.659 19.9816 170.845 20.0808 170.99 20.2266C171.136 20.3723 171.235 20.5579 171.275 20.76C171.316 20.9621 171.295 21.1716 171.216 21.362C171.137 21.5524 171.004 21.7151 170.832 21.8296C170.661 21.9441 170.46 22.0052 170.254 22.0052C169.977 22.0052 169.712 21.8954 169.517 21.7C169.321 21.5046 169.212 21.2396 169.212 20.9633Z" stroke="#263238" stroke-width="0.953494" stroke-linecap="round" stroke-linejoin="round"/>
<path d="M166.521 74.4243V65.3599" stroke="#263238" stroke-width="0.953494" stroke-linecap="round" stroke-linejoin="round"/>
<path d="M168.256 74.4243V65.3599" stroke="#263238" stroke-width="0.953494" stroke-linecap="round" stroke-linejoin="round"/>
<path d="M170.241 74.2769L170.217 65.3657" stroke="#263238" stroke-width="0.953494" stroke-linecap="round" stroke-linejoin="round"/>
<path d="M172.355 74.3931V65.3286" stroke="#263238" stroke-width="0.953494" stroke-linecap="round" stroke-linejoin="round"/>
<path d="M174.593 74.3691V65.3047" stroke="#263238" stroke-width="0.953494" stroke-linecap="round" stroke-linejoin="round"/>
<path d="M210.654 21.5207C210.651 21.3136 210.709 21.1102 210.821 20.9363C210.934 20.7624 211.096 20.626 211.286 20.5445C211.476 20.463 211.687 20.4401 211.89 20.4787C212.094 20.5173 212.281 20.6157 212.428 20.7612C212.576 20.9068 212.676 21.093 212.717 21.296C212.758 21.499 212.738 21.7096 212.659 21.9009C212.579 22.0923 212.445 22.2557 212.272 22.3703C212.1 22.4848 211.897 22.5454 211.69 22.5442C211.418 22.5427 211.157 22.4347 210.964 22.2434C210.77 22.0522 210.659 21.7928 210.654 21.5207Z" stroke="#263238" stroke-width="0.953494" stroke-linecap="round" stroke-linejoin="round"/>
<path d="M211.898 59.9972L214.086 21.0612C214.103 20.7578 214.058 20.4542 213.953 20.1689C213.848 19.8836 213.687 19.6226 213.478 19.4018C213.269 19.181 213.018 19.0051 212.739 18.8847C212.46 18.7643 212.159 18.702 211.855 18.7017H211.451C211.153 18.7016 210.859 18.7609 210.585 18.8759C210.311 18.991 210.062 19.1597 209.854 19.372C209.645 19.5842 209.482 19.8359 209.372 20.1123C209.262 20.3887 209.208 20.6842 209.214 20.9816L209.704 44.136C209.815 49.4476 209.929 54.7735 210.047 60.1137C210.053 60.344 210 60.5719 209.893 60.7758C209.785 60.9796 209.628 61.1526 209.435 61.2781C207.95 62.3133 206.868 63.8284 206.37 65.5683C205.669 67.911 205.52 70.3842 205.935 72.7941C206.382 75.3804 208.178 78.2058 210.985 78.5919C213.792 78.978 215.729 76.5326 216.446 74.1363C217.251 71.5994 217.392 68.8985 216.856 66.2915C216.546 65.1031 215.99 63.9926 215.226 63.031C214.537 62.2802 213.686 61.6956 212.738 61.3211C212.476 61.2178 212.253 61.0339 212.102 60.796C211.951 60.5581 211.88 60.2784 211.898 59.9972Z" stroke="#263238" stroke-width="0.953494" stroke-linecap="round" stroke-linejoin="round"/>
<path d="M207.535 72.1935V66.9902" stroke="#263238" stroke-width="0.953494" stroke-linecap="round" stroke-linejoin="round"/>
<path d="M214.963 72.1935V66.9902" stroke="#263238" stroke-width="0.953494" stroke-linecap="round" stroke-linejoin="round"/>
<path d="M209.747 73.3944V65.666" stroke="#263238" stroke-width="0.953494" stroke-linecap="round" stroke-linejoin="round"/>
<path d="M213.265 73.3944V65.666" stroke="#263238" stroke-width="0.953494" stroke-linecap="round" stroke-linejoin="round"/>
<path d="M211.463 75.9138V64.4775" stroke="#263238" stroke-width="0.953494" stroke-linecap="round" stroke-linejoin="round"/>
<path d="M190.846 22.4031C191.421 22.4031 191.888 21.9366 191.888 21.3612C191.888 20.7858 191.421 20.3193 190.846 20.3193C190.271 20.3193 189.804 20.7858 189.804 21.3612C189.804 21.9366 190.271 22.4031 190.846 22.4031Z" stroke="#263238" stroke-width="0.953494" stroke-linecap="round" stroke-linejoin="round"/>
<path d="M192.268 55.6393L193.904 20.5706C193.914 20.2704 193.863 19.9713 193.756 19.691C193.648 19.4107 193.485 19.1549 193.276 18.9389C193.067 18.7228 192.817 18.5509 192.541 18.4332C192.265 18.3155 191.968 18.2546 191.667 18.2539H190.129C189.825 18.2543 189.524 18.3166 189.245 18.4369C188.966 18.5573 188.715 18.7333 188.506 18.9541C188.297 19.1749 188.136 19.4359 188.031 19.7212C187.927 20.0065 187.881 20.3101 187.898 20.6135L189.804 55.9213C189.823 56.162 189.776 56.4032 189.668 56.6192C189.56 56.8351 189.395 57.0176 189.191 57.147C187.353 58.3054 182.253 62.0868 182.131 68.6446C181.978 76.6671 191.042 80.234 196.227 77.2616C201.314 74.3566 204.979 62.3503 193.034 56.957C192.786 56.8431 192.579 56.6554 192.442 56.4195C192.305 56.1836 192.244 55.9111 192.268 55.6393Z" stroke="#263238" stroke-width="0.953494" stroke-linecap="round" stroke-linejoin="round"/>
<path d="M191.802 74.9817C192.114 74.9817 192.366 74.7293 192.366 74.4178C192.366 74.1064 192.114 73.854 191.802 73.854C191.491 73.854 191.238 74.1064 191.238 74.4178C191.238 74.7293 191.491 74.9817 191.802 74.9817Z" stroke="#263238" stroke-width="0.953494" stroke-linecap="round" stroke-linejoin="round"/>
<path d="M187.622 73.0025C187.614 72.9231 187.622 72.8429 187.647 72.767C187.672 72.6911 187.712 72.6212 187.766 72.5619C187.819 72.5026 187.884 72.4552 187.957 72.4228C188.03 72.3903 188.109 72.3735 188.189 72.3735C188.269 72.3735 188.348 72.3903 188.421 72.4228C188.494 72.4552 188.559 72.5026 188.613 72.5619C188.666 72.6212 188.706 72.6911 188.731 72.767C188.756 72.8429 188.764 72.9231 188.756 73.0025C188.741 73.1427 188.675 73.2725 188.571 73.3669C188.466 73.4613 188.33 73.5135 188.189 73.5135C188.048 73.5135 187.912 73.4613 187.808 73.3669C187.703 73.2725 187.637 73.1427 187.622 73.0025Z" stroke="#263238" stroke-width="0.953494" stroke-linecap="round" stroke-linejoin="round"/>
<path d="M195.479 73.5662C195.791 73.5662 196.043 73.3137 196.043 73.0023C196.043 72.6909 195.791 72.4385 195.479 72.4385C195.168 72.4385 194.916 72.6909 194.916 73.0023C194.916 73.3137 195.168 73.5662 195.479 73.5662Z" stroke="#263238" stroke-width="0.953494" stroke-linecap="round" stroke-linejoin="round"/>
<path d="M191.802 71.2986C192.114 71.2986 192.366 71.0461 192.366 70.7347C192.366 70.4233 192.114 70.1709 191.802 70.1709C191.491 70.1709 191.238 70.4233 191.238 70.7347C191.238 71.0461 191.491 71.2986 191.802 71.2986Z" stroke="#263238" stroke-width="0.953494" stroke-linecap="round" stroke-linejoin="round"/>
<path d="M187.623 69.3193C187.621 69.2063 187.654 69.0955 187.716 69.001C187.778 68.9064 187.866 68.8324 187.97 68.7883C188.074 68.7442 188.189 68.7321 188.3 68.7534C188.411 68.7747 188.513 68.8285 188.593 68.9079C188.674 68.9874 188.729 69.0889 188.751 69.1997C188.774 69.3104 188.763 69.4253 188.72 69.5298C188.677 69.6343 188.604 69.7237 188.51 69.7866C188.416 69.8495 188.306 69.8831 188.193 69.8831C188.042 69.8831 187.898 69.8239 187.792 69.7183C187.685 69.6128 187.624 69.4694 187.623 69.3193Z" stroke="#263238" stroke-width="0.953494" stroke-linecap="round" stroke-linejoin="round"/>
<path d="M195.479 69.8826C195.791 69.8826 196.043 69.6301 196.043 69.3187C196.043 69.0073 195.791 68.7549 195.479 68.7549C195.168 68.7549 194.916 69.0073 194.916 69.3187C194.916 69.6301 195.168 69.8826 195.479 69.8826Z" stroke="#263238" stroke-width="0.953494" stroke-linecap="round" stroke-linejoin="round"/>
<path d="M191.802 67.6213C192.114 67.6213 192.366 67.3689 192.366 67.0575C192.366 66.7461 192.114 66.4937 191.802 66.4937C191.491 66.4937 191.238 66.7461 191.238 67.0575C191.238 67.3689 191.491 67.6213 191.802 67.6213Z" stroke="#263238" stroke-width="0.953494" stroke-linecap="round" stroke-linejoin="round"/>
<path d="M187.622 65.6417C187.614 65.5623 187.622 65.482 187.647 65.4061C187.672 65.3302 187.712 65.2604 187.766 65.2011C187.819 65.1418 187.884 65.0944 187.957 65.0619C188.03 65.0295 188.109 65.0127 188.189 65.0127C188.269 65.0127 188.348 65.0295 188.421 65.0619C188.494 65.0944 188.559 65.1418 188.613 65.2011C188.666 65.2604 188.706 65.3302 188.731 65.4061C188.756 65.482 188.764 65.5623 188.756 65.6417C188.741 65.7819 188.675 65.9117 188.571 66.0061C188.466 66.1004 188.33 66.1526 188.189 66.1526C188.048 66.1526 187.912 66.1004 187.808 66.0061C187.703 65.9117 187.637 65.7819 187.622 65.6417Z" stroke="#263238" stroke-width="0.953494" stroke-linecap="round" stroke-linejoin="round"/>
<path d="M195.479 66.2053C195.791 66.2053 196.043 65.9529 196.043 65.6415C196.043 65.3301 195.791 65.0776 195.479 65.0776C195.168 65.0776 194.916 65.3301 194.916 65.6415C194.916 65.9529 195.168 66.2053 195.479 66.2053Z" stroke="#263238" stroke-width="0.953494" stroke-linecap="round" stroke-linejoin="round"/>
<path d="M191.802 61.3884C192.114 61.3884 192.366 61.136 192.366 60.8246C192.366 60.5132 192.114 60.2607 191.802 60.2607C191.491 60.2607 191.238 60.5132 191.238 60.8246C191.238 61.136 191.491 61.3884 191.802 61.3884Z" stroke="#263238" stroke-width="0.953494" stroke-linecap="round" stroke-linejoin="round"/>
<path d="M187.622 62.24C187.614 62.3194 187.622 62.3996 187.647 62.4755C187.672 62.5514 187.712 62.6213 187.766 62.6806C187.819 62.7399 187.884 62.7873 187.957 62.8197C188.03 62.8522 188.109 62.869 188.189 62.869C188.269 62.869 188.348 62.8522 188.421 62.8197C188.494 62.7873 188.559 62.7399 188.613 62.6806C188.666 62.6213 188.706 62.5514 188.731 62.4755C188.756 62.3996 188.764 62.3194 188.756 62.24C188.741 62.0998 188.675 61.97 188.571 61.8756C188.466 61.7812 188.33 61.729 188.189 61.729C188.048 61.729 187.912 61.7812 187.808 61.8756C187.703 61.97 187.637 62.0998 187.622 62.24Z" stroke="#263238" stroke-width="0.953494" stroke-linecap="round" stroke-linejoin="round"/>
<path d="M195.479 62.804C195.791 62.804 196.043 62.5515 196.043 62.2401C196.043 61.9287 195.791 61.6763 195.479 61.6763C195.168 61.6763 194.916 61.9287 194.916 62.2401C194.916 62.5515 195.168 62.804 195.479 62.804Z" stroke="#263238" stroke-width="0.953494" stroke-linecap="round" stroke-linejoin="round"/>
</svg>
